<svg width="14" height="14" viewBox="0 0 14 14" fill="none" xmlns="http://www.w3.org/2000/svg">
<path d="M12.5 13.5H11.5V12.5H10.5V11.5H9.5V10.5H8.5V9.5H7.5V8.5H5.5V9.5H4.5V10.5H3.5V11.5H2.5V12.5H1.5V13.5H0.5V11.5H1.5V10.5H2.5V9.5H3.5V8.5H4.5V7.5H5.5V6.5H4.5V5.5H3.5V4.5H2.5V3.5H1.5V2.5H0.5V0.5H2.5V1.5H3.5V2.5H4.5V3.5H5.5V4.5H6.5V5.5H7.5V4.5H8.5V3.5H9.5V2.5H10.5V1.5H11.5V0.5H13.5V1.5H12.5V2.5H11.5V3.5H10.5V4.5H9.5V5.5H8.5V7.5H9.5V8.5H10.5V9.5H11.5V10.5H12.5V11.5H13.5V12.5H12.5V13.5Z" fill="#696969"/>
</svg>
